# xmcd CD database file
# Copyright (C) 1997 Ti Kan
# 
# Track frame offsets:
#     182
#     10227
#     21567
#     34262
#     49230
#     63390
#     76657
#     87697
#     99402
#     111792
#     130872
#     141817
#     154762
#     168180
#     179855
#     192605
#     206342
#     218645
#     238120
#     256280
# 
# Disc length: 3597 seconds
# 
# Revision: 1
# Processed by: cddbd v1.4b41PL1 Copyright (c) Steve Scherf et al.
# Submitted via: DiscPlay 4.0.4
# 
DISCID=1e0e0b14
DTITLE=Stompin' Tom Connors - KIC Along with Stompin' Tom
DYEAR=1900
DGENRE=
TTITLE0=The Hockey Song
TTITLE1=To It and At It
TTITLE2=The Coal Boat Song
TTITLE3=Margo's Cargo
TTITLE4=Luke's Guitar
TTITLE5=Muckin' Slushers
TTITLE6=Handy-Man Blues
TTITLE7=Song of the Irish Moss
TTITLE8=Wreck of the Tammy Anne
TTITLE9=Black Donnelly's Massacre
TTITLE10=Jenny Donnelly
TTITLE11=Tribute to Wilf Carter
TTITLE12=Zakuska Polka
TTITLE13=Red River Jane
TTITLE14=The Consumer
TTITLE15=Muk Luk Shoo
TTITLE16=Okanangan Okee
TTITLE17=Rite MacNeil (a Tribute)
TTITLE18=Don Messer Story
TTITLE19=Believe in Your Country
EXTD=
EXTT0=
EXTT1=
EXTT2=
EXTT3=
EXTT4=
EXTT5=
EXTT6=
EXTT7=
EXTT8=
EXTT9=
EXTT10=
EXTT11=
EXTT12=
EXTT13=
EXTT14=
EXTT15=
EXTT16=
EXTT17=
EXTT18=
EXTT19=
PLAYORDER=
